STARTFONT 2.3
FONT -FontForge-Permanent Marker-Book-R-Normal--12-120-72-72-P-69-ISO10646-1
SIZE 12 72 72  4
FONTBOUNDINGBOX 19 18 -4 -4
COMMENT "Generated by fontforge, http://fontforge.sourceforge.net"
COMMENT "Copyright (c) 2010 by Font Diner, Inc. All rights reserved."
STARTPROPERTIES 40
FOUNDRY "FontForge"
FAMILY_NAME "Permanent Marker"
WEIGHT_NAME "Book"
SLANT "R"
SETWIDTH_NAME "Normal"
ADD_STYLE_NAME ""
PIXEL_SIZE 12
POINT_SIZE 120
RESOLUTION_X 72
RESOLUTION_Y 72
SPACING "P"
AVERAGE_WIDTH 69
CHARSET_REGISTRY "ISO10646"
CHARSET_ENCODING "1"
FONTNAME_REGISTRY ""
CHARSET_COLLECTIONS "ISO10646-1"
BITS_PER_PIXEL 4
FONT_NAME "PermanentMarker-Regular"
FACE_NAME "Permanent Marker Regular"
COPYRIGHT "Copyright (c) 2010 by Font Diner, Inc. All rights reserved."
FONT_VERSION "1.001"
FONT_ASCENT 10
FONT_DESCENT 2
UNDERLINE_POSITION -1
UNDERLINE_THICKNESS 1
X_HEIGHT 6
CAP_HEIGHT 8
RAW_ASCENT 799
RAW_DESCENT 200
NORM_SPACE 4
RELATIVE_WEIGHT 40
RELATIVE_SETWIDTH 50
SUPERSCRIPT_X 0
SUPERSCRIPT_Y 5
SUPERSCRIPT_SIZE 7
SUBSCRIPT_X 0
SUBSCRIPT_Y 1
SUBSCRIPT_SIZE 7
AVG_LOWERCASE_WIDTH 69
AVG_UPPERCASE_WIDTH 80
ENDPROPERTIES
CHARS 230
STARTCHAR space
ENCODING 32
SWIDTH 370 0
DWIDTH 4 0
BBX 1 1 0 0
BITMAP
00
ENDCHAR
STARTCHAR exclam
ENCODING 33
SWIDTH 260 0
DWIDTH 3 0
BBX 4 10 0 -1
BITMAP
02B1
06F3
0AF1
0DD0
1FA0
2F60
0300
8A10
CE00
2200
ENDCHAR
STARTCHAR quotedbl
ENCODING 34
SWIDTH 492 0
DWIDTH 6 0
BBX 6 6 1 3
BITMAP
2C45B2
7F8AF3
BF3EC0
ED4F80
FA7F40
732B10
ENDCHAR
STARTCHAR numbersign
ENCODING 35
SWIDTH 703 0
DWIDTH 8 0
BBX 9 9 0 0
BITMAP
0004205100
000D91F700
025FC9F900
0FFFFFFF70
05EC2FA000
49FECFD500
8FFBEF9300
0EC2FA0000
1D73E40000
ENDCHAR
STARTCHAR dollar
ENCODING 36
SWIDTH 493 0
DWIDTH 6 0
BBX 7 10 0 -1
BITMAP
00026000
0008D200
05AEFF50
8FF85530
5DFE4000
0007C000
148E9000
2FFA0000
08F20000
00200000
ENDCHAR
STARTCHAR percent
ENCODING 37
SWIDTH 643 0
DWIDTH 8 0
BBX 8 9 0 0
BITMAP
00520004
07F800AB
3FBE0AF4
5FFB9E40
0229E300
00AE5B50
0AE4DEB0
5F46FBF0
6C02BA50
ENDCHAR
STARTCHAR ampersand
ENCODING 38
SWIDTH 599 0
DWIDTH 7 0
BBX 7 7 0 0
BITMAP
00026000
042AF000
7FEFF400
DEFFFFC0
28CFA410
008F4000
00370000
ENDCHAR
STARTCHAR quotesingle
ENCODING 39
SWIDTH 265 0
DWIDTH 3 0
BBX 3 6 1 3
BITMAP
2C40
7F80
BF20
ED00
FA00
7300
ENDCHAR
STARTCHAR parenleft
ENCODING 40
SWIDTH 361 0
DWIDTH 4 0
BBX 6 14 0 -3
BITMAP
000001
0001B9
001CF8
00CFA1
07FB00
0EF300
2FB000
6F6000
9F4000
9F4000
7F7000
3F9000
089000
001000
ENDCHAR
STARTCHAR parenright
ENCODING 41
SWIDTH 361 0
DWIDTH 4 0
BBX 6 14 -2 -3
BITMAP
000100
0006A0
0006F6
0004FB
0001FC
0001FC
0003FA
0007F5
001DF2
008FA0
07FE10
4FE300
6D2000
010000
ENDCHAR
STARTCHAR asterisk
ENCODING 42
SWIDTH 673 0
DWIDTH 8 0
BBX 9 7 0 2
BITMAP
002A139000
007FBE9000
057FFFB710
1EFFFFCA30
015FDF6000
00DE1B7000
0011001000
ENDCHAR
STARTCHAR plus
ENCODING 43
SWIDTH 579 0
DWIDTH 7 0
BBX 7 7 0 0
BITMAP
00030000
003F5000
008F6000
AEFFFD20
7BFE8610
02FB0000
01A40000
ENDCHAR
STARTCHAR comma
ENCODING 44
SWIDTH 204 0
DWIDTH 2 0
BBX 4 4 -2 -2
BITMAP
0281
07F6
0DF2
2E80
ENDCHAR
STARTCHAR hyphen
ENCODING 45
SWIDTH 609 0
DWIDTH 7 0
BBX 7 3 0 2
BITMAP
00011000
8EFFFE30
5B988610
ENDCHAR
STARTCHAR period
ENCODING 46
SWIDTH 228 0
DWIDTH 3 0
BBX 3 3 -1 -1
BITMAP
1B70
3F90
0300
ENDCHAR
STARTCHAR slash
ENCODING 47
SWIDTH 401 0
DWIDTH 5 0
BBX 7 10 -1 -1
BITMAP
00000140
00000CA0
00009F60
0005F800
003FA000
02DC1000
1DE20000
5F500000
5F200000
01000000
ENDCHAR
STARTCHAR zero
ENCODING 48
SWIDTH 686 0
DWIDTH 8 0
BBX 8 11 0 -1
BITMAP
00000100
0000AD10
001BFF60
00BFFF70
09FE5DD0
3FE307F5
9F8003F9
BF304CFB
BFEEFFE4
3EFFFA30
01330000
ENDCHAR
STARTCHAR one
ENCODING 49
SWIDTH 322 0
DWIDTH 4 0
BBX 4 9 0 0
BITMAP
0920
0ED0
0CF2
0AF4
0CF3
2FE0
7FB0
AF60
8E20
ENDCHAR
STARTCHAR two
ENCODING 50
SWIDTH 650 0
DWIDTH 8 0
BBX 9 9 0 0
BITMAP
069A950000
2FFFFF8000
0AA7AFF200
0005EFB000
007FFB1000
06FF800000
2FF958AC20
4FFFFFFF60
1CFEB96200
ENDCHAR
STARTCHAR three
ENCODING 51
SWIDTH 561 0
DWIDTH 7 0
BBX 8 9 -1 0
BITMAP
00368980
0DFFFFF6
1FFFFFF5
028FFC40
009FFE40
0018DFD0
01226EF3
08FFFFC0
08DDA500
ENDCHAR
STARTCHAR four
ENCODING 52
SWIDTH 582 0
DWIDTH 7 0
BBX 7 10 0 -1
BITMAP
00009400
3800DB00
5F20EA00
3F95FE80
1FFFFFB0
05AFE400
000FA000
002F8000
000ED000
00033000
ENDCHAR
STARTCHAR five
ENCODING 53
SWIDTH 580 0
DWIDTH 7 0
BBX 8 9 0 0
BITMAP
00270000
06FFDDE8
4FFFFFFC
6FFD6420
2EFF9000
017DF600
1325FC00
4FFFFC00
09DDA200
ENDCHAR
STARTCHAR six
ENCODING 54
SWIDTH 500 0
DWIDTH 6 0
BBX 7 10 -1 -1
BITMAP
00039300
001EFA00
009FB300
01ED1000
07F75500
0CEAFF50
1FBFFFA0
1FFFFE30
0CFEA200
00200000
ENDCHAR
STARTCHAR seven
ENCODING 55
SWIDTH 576 0
DWIDTH 7 0
BBX 8 9 0 0
BITMAP
49974000
CFFFF700
788AFE00
0000CE00
047AFFC4
2FFFFFC3
08CFA000
00DE1000
00D80000
ENDCHAR
STARTCHAR eight
ENCODING 56
SWIDTH 537 0
DWIDTH 6 0
BBX 7 10 0 -1
BITMAP
019B5440
0CFFE9C0
3FA8FCF0
2FC7EF80
0AFFE600
0CFF7000
0F8CC000
0EEEE000
06FF7000
00110000
ENDCHAR
STARTCHAR nine
ENCODING 57
SWIDTH 529 0
DWIDTH 6 0
BBX 7 10 0 -1
BITMAP
00399100
06FFF900
3FE8DF10
7FFFFF50
4EFDFC00
0012F600
0005F300
0008F000
0009B000
00011000
ENDCHAR
STARTCHAR colon
ENCODING 58
SWIDTH 241 0
DWIDTH 3 0
BBX 4 7 -1 -1
BITMAP
0110
08F4
06D3
0000
1B70
3F90
0300
ENDCHAR
STARTCHAR semicolon
ENCODING 59
SWIDTH 245 0
DWIDTH 3 0
BBX 4 8 -1 -2
BITMAP
0020
08F4
05E3
0000
0840
2FC0
7F80
AD10
ENDCHAR
STARTCHAR less
ENCODING 60
SWIDTH 625 0
DWIDTH 8 0
BBX 8 6 0 0
BITMAP
000006A2
0038EFD3
9DFFB610
AFFB4000
04BFFA00
00015920
ENDCHAR
STARTCHAR equal
ENCODING 61
SWIDTH 586 0
DWIDTH 7 0
BBX 7 5 0 1
BITMAP
02455410
6FFFFF70
26433100
8CDEFB00
9A886300
ENDCHAR
STARTCHAR greater
ENCODING 62
SWIDTH 634 0
DWIDTH 8 0
BBX 8 6 -1 0
BITMAP
03A51000
00BFFA40
0004CFF9
017CFFC8
4EFD7200
3A500000
ENDCHAR
STARTCHAR question
ENCODING 63
SWIDTH 556 0
DWIDTH 7 0
BBX 8 10 0 -1
BITMAP
03BCB840
0DFFFFF5
06659FF5
0005EFD1
009FF810
04FB2000
02500000
3C400000
4F800000
04000000
ENDCHAR
STARTCHAR at
ENCODING 64
SWIDTH 732 0
DWIDTH 9 0
BBX 10 10 -1 -1
BITMAP
000009C500
00003EFF40
0007FB1AC0
00AF86B7F6
09F9BEF4C8
1FB8F6F4E5
0F45FFFE70
0BD6453300
018EFFFF30
0000234200
ENDCHAR
STARTCHAR A
ENCODING 65
SWIDTH 702 0
DWIDTH 8 0
BBX 10 9 -1 0
BITMAP
0000065000
00016FF400
000CFFF600
005FFCF900
00BFA3FD40
03FFCCFFF4
0AFBFFEF80
2FE122BF70
1D9000DD10
ENDCHAR
STARTCHAR B
ENCODING 66
SWIDTH 686 0
DWIDTH 8 0
BBX 9 10 -1 -1
BITMAP
0047ABA400
2DFFFFFF40
1EEE45FF60
015FEFFB00
006FFFF600
00BFA56E50
01FF12AFC0
05FECFFF60
03FFFD9200
0021300000
ENDCHAR
STARTCHAR C
ENCODING 67
SWIDTH 611 0
DWIDTH 7 0
BBX 7 9 0 0
BITMAP
00002830
0019FFE0
04EFFF90
4FFF7100
DFB10000
ED100000
CE531100
5FFFFF70
04ADFE60
ENDCHAR
STARTCHAR D
ENCODING 68
SWIDTH 588 0
DWIDTH 7 0
BBX 7 9 0 0
BITMAP
18200000
2FFB3000
4FBEF600
2F518F40
2F600BB0
5F518FC0
9FBEFE20
CFFF9100
8E820000
ENDCHAR
STARTCHAR E
ENCODING 69
SWIDTH 626 0
DWIDTH 8 0
BBX 8 10 0 -1
BITMAP
00025793
09DFFFFA
1FFFD850
0CF96400
1EFFFF50
7FDBA600
DF402530
CFFFFFE0
5EFFEB50
00100000
ENDCHAR
STARTCHAR F
ENCODING 70
SWIDTH 575 0
DWIDTH 7 0
BBX 10 10 -1 -1
BITMAP
000027AC91
018DFFFFF6
03FFE73100
008F900000
07BFA89200
2FFFFFF500
0AFB742000
0AF2000000
07E0000000
0010000000
ENDCHAR
STARTCHAR G
ENCODING 71
SWIDTH 789 0
DWIDTH 9 0
BBX 10 9 0 0
BITMAP
0000067000
0003CFF600
006FFFA200
06FFC31000
4FFA02EC40
CFA000DFF8
EE3269EFFC
AFFFFFFE91
2CFEB84000
ENDCHAR
STARTCHAR H
ENCODING 72
SWIDTH 695 0
DWIDTH 8 0
BBX 10 10 -1 -1
BITMAP
0021000820
00AA000DA0
00DF301FF1
00FF102FF1
03FE039FE0
07FFEFFFB0
0BFFFBFF50
1EFC21FF20
0CE300AB00
0010000000
ENDCHAR
STARTCHAR I
ENCODING 73
SWIDTH 515 0
DWIDTH 6 0
BBX 9 10 -1 -1
BITMAP
0047AAB920
009FFFFF90
0026CF3100
0000ED0000
0004F90000
000AF50000
002FE10000
4BDFFE2000
3FECB91000
0100000000
ENDCHAR
STARTCHAR J
ENCODING 74
SWIDTH 668 0
DWIDTH 8 0
BBX 11 9 -1 0
BITMAP
001456788600
02FFFFFFFF60
01DC88FD6630
000005F90000
000008F60000
00000DF20000
04106FC00000
3FFEFF500000
09BED6000000
ENDCHAR
STARTCHAR K
ENCODING 75
SWIDTH 776 0
DWIDTH 9 0
BBX 10 10 0 -1
BITMAP
0057000100
01EF507EA0
06FE3BFFB0
0BFCEFE700
2FFFFD3000
7FFFF80000
AFFCDFDAA2
CFD12BFFF6
7E30003640
0100000000
ENDCHAR
STARTCHAR L
ENCODING 76
SWIDTH 632 0
DWIDTH 8 0
BBX 8 10 0 -1
BITMAP
00950000
03FF1000
08FB0000
0DF50000
4FE00000
9F900000
CF646610
CFFFFFE2
5FFCA9A2
01100000
ENDCHAR
STARTCHAR M
ENCODING 77
SWIDTH 973 0
DWIDTH 12 0
BBX 12 10 0 -1
BITMAP
000A40000440
008FF4002EF4
02EFF804EFF7
09FFFB9FFFF4
1EFFFFFFCFF3
7FE6FFE82FF0
CFA024105FD0
DF3000006F80
AB0000002B20
110000000000
ENDCHAR
STARTCHAR N
ENCODING 78
SWIDTH 684 0
DWIDTH 8 0
BBX 10 9 -1 0
BITMAP
0003600450
000AF70AF5
002FFA0EF4
009FF62FE0
02FFF56FB0
09FFF7DF90
1FFCEFFF50
0EF37FFB00
07C0079100
ENDCHAR
STARTCHAR O
ENCODING 79
SWIDTH 744 0
DWIDTH 9 0
BBX 9 10 0 -1
BITMAP
00003C5000
0005FFF100
007FFFF100
07FF98F800
3FF600CE10
9F80006F50
DF2038EF70
BFFFFFFC10
2CFFEB5000
0001000000
ENDCHAR
STARTCHAR P
ENCODING 80
SWIDTH 639 0
DWIDTH 8 0
BBX 8 10 0 -1
BITMAP
0007BB70
00AFFFF8
02FE9AFD
1CF85AFF
6FFFFFF9
7FFFEA50
3FD20000
6FB00000
5F700000
02000000
ENDCHAR
STARTCHAR Q
ENCODING 81
SWIDTH 744 0
DWIDTH 9 0
BBX 9 10 0 -1
BITMAP
00007A4000
0001DFF300
003DFFFC00
05EFC28F50
4FF9522F90
DF90CEBF80
FD029FFE30
DEDFFFF900
5EFEB6ED00
0010005800
ENDCHAR
STARTCHAR R
ENCODING 82
SWIDTH 646 0
DWIDTH 8 0
BBX 8 10 0 -1
BITMAP
0003A300
002EFE30
05DFDFA0
1FF83FF0
4FFCFFD0
7FFFE810
AFFE3000
CFBFFD94
8C06CFFB
00000263
ENDCHAR
STARTCHAR S
ENCODING 83
SWIDTH 576 0
DWIDTH 7 0
BBX 9 10 0 -1
BITMAP
00037AB500
17EFFFFE10
AFFD766610
CFFF900000
28ADF60000
0000AE0000
0018FC0000
3CFFE30000
3FFA200000
0210000000
ENDCHAR
STARTCHAR T
ENCODING 84
SWIDTH 607 0
DWIDTH 7 0
BBX 10 10 0 -1
BITMAP
123588AB80
EFFFFFFFF4
9DCEF95320
002FE10000
008F900000
00DF200000
03FB000000
04F6000000
00DD000000
0012000000
ENDCHAR
STARTCHAR U
ENCODING 85
SWIDTH 695 0
DWIDTH 8 0
BBX 9 9 0 0
BITMAP
0000000700
0810002F40
1FA0005F90
3FD000AF70
6FA004FF30
6FA05EFA00
5FEDFFB100
0EFFFC1000
05DD700000
ENDCHAR
STARTCHAR V
ENCODING 86
SWIDTH 583 0
DWIDTH 7 0
BBX 8 10 0 -1
BITMAP
17000076
3F6007FC
2FC03FF7
1FE0DFA0
1FF9FC10
0EFFF300
0BFF8000
08FD1000
02E80000
00100000
ENDCHAR
STARTCHAR W
ENCODING 87
SWIDTH 994 0
DWIDTH 12 0
BBX 13 9 0 0
BITMAP
00500000001700
05F80076008F40
0CF703FF10DF60
1FF20CFE05FE10
5FD06FFA0BF800
8F93EFF95FF200
BFBEFEEEFF9000
6FFFD27FFE1000
09D8100CE30000
ENDCHAR
STARTCHAR X
ENCODING 88
SWIDTH 623 0
DWIDTH 7 0
BBX 10 10 -1 -1
BITMAP
0062000130
00FE305EE1
00CFD9FFB0
002EFFF600
001DFF4000
01CFFF8000
0BFD6FF400
1FE209F900
1E7002D600
0300000000
ENDCHAR
STARTCHAR Y
ENCODING 89
SWIDTH 493 0
DWIDTH 6 0
BBX 8 10 0 -1
BITMAP
29100880
4F909FF2
2FD5FF50
0EFEF700
09FFC000
04FF3000
0BF90000
4FE10000
5F800000
04000000
ENDCHAR
STARTCHAR Z
ENCODING 90
SWIDTH 664 0
DWIDTH 8 0
BBX 10 10 -1 -1
BITMAP
0018988750
003FFFFFF3
000678FFD1
00004EFB10
001AFFB000
04DFF70000
0EFD325800
1FFCCFFF50
0BFFFD9300
0166300000
ENDCHAR
STARTCHAR bracketleft
ENCODING 91
SWIDTH 387 0
DWIDTH 5 0
BBX 10 13 -1 -2
BITMAP
00059BCCA1
0009FFFED5
000CF10000
000FB00000
004F800000
008F400000
00CF100000
01FC000000
06F8000000
0AF3000000
0EE1210000
4FFFFD1000
2EB9860000
ENDCHAR
STARTCHAR backslash
ENCODING 92
SWIDTH 352 0
DWIDTH 4 0
BBX 4 10 0 -1
BITMAP
3900
3F50
1F70
0C90
0AC0
07F0
05F3
03F4
02F6
0031
ENDCHAR
STARTCHAR bracketright
ENCODING 93
SWIDTH 403 0
DWIDTH 5 0
BBX 9 13 -4 -2
BITMAP
0004ACDD70
0006FFEFE0
0000201FA0
0000005F70
0000009F30
000000DE00
000001FA00
000006F700
00000AF300
00000ED000
00015F9000
3CEFFF4000
2EB9860000
ENDCHAR
STARTCHAR asciicircum
ENCODING 94
SWIDTH 518 0
DWIDTH 6 0
BBX 6 7 0 2
BITMAP
000880
002EF0
00AFF3
05FCF5
2ED3F6
CF30E7
B50055
ENDCHAR
STARTCHAR underscore
ENCODING 95
SWIDTH 708 0
DWIDTH 9 0
BBX 11 3 -2 -1
BITMAP
044666765200
1FFFFFFFFE40
035433322100
ENDCHAR
STARTCHAR grave
ENCODING 96
SWIDTH 754 0
DWIDTH 9 0
BBX 4 4 3 5
BITMAP
2C20
6FE2
05FD
0038
ENDCHAR
STARTCHAR a
ENCODING 97
SWIDTH 581 0
DWIDTH 7 0
BBX 8 9 -1 -1
BITMAP
00001000
0000BE20
002EFF40
00AFCF70
02FD2FD5
09FFFFF9
1EC57BF3
2F600DC1
01000100
ENDCHAR
STARTCHAR b
ENCODING 98
SWIDTH 573 0
DWIDTH 7 0
BBX 8 9 -1 -1
BITMAP
00023300
19EFFFA0
2FFA6EF2
039EEF90
00CFFF60
01FA14F4
06F9AFF5
07FFFB40
00231000
ENDCHAR
STARTCHAR c
ENCODING 99
SWIDTH 513 0
DWIDTH 6 0
BBX 6 9 0 -1
BITMAP
000010
0019F9
06EFF9
6FFA20
EE4000
E80000
9FCA93
19EFF6
000100
ENDCHAR
STARTCHAR d
ENCODING 100
SWIDTH 497 0
DWIDTH 6 0
BBX 6 8 0 0
BITMAP
100000
4E9200
5EDE60
4E05E4
4F00AA
7E4BF7
BFFF70
AE8200
ENDCHAR
STARTCHAR e
ENCODING 101
SWIDTH 521 0
DWIDTH 6 0
BBX 7 9 0 -1
BITMAP
00000100
059CFF60
3FFFB710
0ED65000
3FFFF400
AF652000
DE9ACA00
8FFFD600
02200000
ENDCHAR
STARTCHAR f
ENCODING 102
SWIDTH 455 0
DWIDTH 5 0
BBX 8 9 -1 -1
BITMAP
00000241
0059EFFD
06FFB643
01CE1000
1AEEAC30
1EFFDA10
0BD10000
0A900000
00100000
ENDCHAR
STARTCHAR g
ENCODING 103
SWIDTH 652 0
DWIDTH 8 0
BBX 9 9 0 -1
BITMAP
0000110000
0004DD1000
009FFB1000
0AFD420000
7FC11FC400
ED101DFF30
CDADFFFA00
4EFEB62000
0010000000
ENDCHAR
STARTCHAR h
ENCODING 104
SWIDTH 582 0
DWIDTH 7 0
BBX 7 9 0 -1
BITMAP
00000200
0A100D30
1F901FA0
2F802FB0
5F85BF80
AFFFFF50
EFB4DF00
DD00AB00
11000000
ENDCHAR
STARTCHAR i
ENCODING 105
SWIDTH 320 0
DWIDTH 4 0
BBX 4 9 0 -1
BITMAP
0010
05D0
0AF2
0DE0
2FA0
4F70
4F70
1E60
0100
ENDCHAR
STARTCHAR j
ENCODING 106
SWIDTH 534 0
DWIDTH 6 0
BBX 9 7 -1 0
BITMAP
03BDEFFF90
03EBAFD870
00002F7000
00006F4000
0000BE0000
2C9AF90000
1CEFA10000
ENDCHAR
STARTCHAR k
ENCODING 107
SWIDTH 645 0
DWIDTH 8 0
BBX 8 9 0 -1
BITMAP
00100000
02F70392
09F77FF6
0EFCFD50
5FFFC100
9FFFD421
CFA3DFFD
9D101684
01000000
ENDCHAR
STARTCHAR l
ENCODING 108
SWIDTH 533 0
DWIDTH 6 0
BBX 7 9 0 -1
BITMAP
01100000
06F50000
0BF30000
1FC00000
6F700000
BF100000
DFBEE900
8FFCBB10
02100000
ENDCHAR
STARTCHAR m
ENCODING 109
SWIDTH 814 0
DWIDTH 10 0
BBX 10 9 0 -1
BITMAP
0002000000
00AE3005E3
05FF905EF9
0CFFC9FFF6
4FEFFFEBF5
AF67B81AF3
EE10000CE0
B800000860
1000000000
ENDCHAR
STARTCHAR n
ENCODING 110
SWIDTH 564 0
DWIDTH 7 0
BBX 8 8 -1 0
BITMAP
00010010
000D709A
006FD0EE
00DF92F9
06FF87F6
0DFFCEF3
1FE5FFC0
0A806B20
ENDCHAR
STARTCHAR o
ENCODING 111
SWIDTH 628 0
DWIDTH 8 0
BBX 8 9 0 -1
BITMAP
00003100
0008FB00
01AFFD00
0AFB7F50
6FA00AC0
BE101AF1
CE9AEFD0
4EFFD810
01210000
ENDCHAR
STARTCHAR p
ENCODING 112
SWIDTH 524 0
DWIDTH 6 0
BBX 7 9 0 -1
BITMAP
00033000
01BFFD20
07FCCF70
3ED5AF90
9FFFFD30
7FC95000
8F400000
8F100000
12000000
ENDCHAR
STARTCHAR q
ENCODING 113
SWIDTH 625 0
DWIDTH 8 0
BBX 8 9 0 -1
BITMAP
00013000
0007FB00
006FFF60
09FD39E1
8FB665F3
ED14FEE1
EA9DFF70
8FFD9E80
02100650
ENDCHAR
STARTCHAR r
ENCODING 114
SWIDTH 541 0
DWIDTH 7 0
BBX 7 9 0 -1
BITMAP
00020000
005FC100
05EEF800
2FD2ED00
6FEFF800
9FFA3000
CFFD7410
A94CFF70
00003620
ENDCHAR
STARTCHAR s
ENCODING 115
SWIDTH 463 0
DWIDTH 6 0
BBX 7 9 0 -1
BITMAP
00002200
049EFF80
9FFB8970
CFFB1000
168DA000
0008F000
27CF9000
6FE70000
03000000
ENDCHAR
STARTCHAR t
ENCODING 116
SWIDTH 479 0
DWIDTH 6 0
BBX 8 9 0 -1
BITMAP
00011340
ABCFFFF9
BEEFB763
009F2000
01EB0000
05F40000
08E00000
05E20000
00200000
ENDCHAR
STARTCHAR u
ENCODING 117
SWIDTH 584 0
DWIDTH 7 0
BBX 8 8 0 0
BITMAP
00000010
030001D0
1F3005F3
4F7009F2
6F504FC0
6F88FE40
2FFFF400
09EB4000
ENDCHAR
STARTCHAR v
ENCODING 118
SWIDTH 485 0
DWIDTH 6 0
BBX 7 9 0 -1
BITMAP
01000110
2D101D90
2F70CF60
2F97FA00
1FCED100
0EFF4000
0BFA0000
05F20000
00100000
ENDCHAR
STARTCHAR w
ENCODING 119
SWIDTH 825 0
DWIDTH 10 0
BBX 11 9 0 -1
BITMAP
000000000100
05B003101E30
0DE01EA07F60
3FA0AFA0DE10
7F54FF65F900
AF5EFF9EF200
9FFF8AFF9000
2DD602EB1000
000000100000
ENDCHAR
STARTCHAR x
ENCODING 120
SWIDTH 506 0
DWIDTH 6 0
BBX 8 8 -1 -1
BITMAP
02E401A7
02FF7EF9
006FFE50
007FF500
06FEFC00
1FD28F60
2F401E60
03000100
ENDCHAR
STARTCHAR y
ENCODING 121
SWIDTH 400 0
DWIDTH 5 0
BBX 7 9 0 -1
BITMAP
01001200
5E21DE10
3F7BF800
1FEFA000
0AFE1000
09F60000
2FC00000
6F400000
04000000
ENDCHAR
STARTCHAR z
ENCODING 122
SWIDTH 547 0
DWIDTH 7 0
BBX 8 9 -1 -1
BITMAP
00011100
008FFFFA
002A9FFB
0002CF91
006EF800
0AFD4010
1FF79DE2
0DFFFC50
01651000
ENDCHAR
STARTCHAR braceleft
ENCODING 123
SWIDTH 448 0
DWIDTH 5 0
BBX 10 13 0 -2
BITMAP
00049BCCA2
0008FFFED5
000AF20000
000ED00000
007F900000
6DFD300000
9FE2000000
1AFD000000
04F9000000
09F4000000
0DE1110000
3FFFFE2000
1DC9970000
ENDCHAR
STARTCHAR bar
ENCODING 124
SWIDTH 332 0
DWIDTH 4 0
BBX 4 10 0 -1
BITMAP
0027
009D
00EB
03F5
09E0
0DA0
4F50
BE00
E900
1000
ENDCHAR
STARTCHAR braceright
ENCODING 125
SWIDTH 481 0
DWIDTH 6 0
BBX 10 13 -4 -2
BITMAP
0005ACDC50
0008FEEFC0
0001203F80
0000006F50
000000BF10
000001FF50
0000006FF5
000004CFE5
00000CF710
00002FC000
00017F7000
5CEFFF2000
3EB9850000
ENDCHAR
STARTCHAR asciitilde
ENCODING 126
SWIDTH 581 0
DWIDTH 7 0
BBX 7 3 0 2
BITMAP
19B71950
AEBFEE20
62067200
ENDCHAR
STARTCHAR uni00A0
ENCODING 160
SWIDTH 370 0
DWIDTH 4 0
BBX 1 1 0 0
BITMAP
00
ENDCHAR
STARTCHAR exclamdown
ENCODING 161
SWIDTH 260 0
DWIDTH 3 0
BBX 4 10 -1 -1
BITMAP
008A
00EE
0012
02C2
07F4
0AF1
0DC0
1FA0
1E60
0200
ENDCHAR
STARTCHAR cent
ENCODING 162
SWIDTH 488 0
DWIDTH 6 0
BBX 6 10 0 -1
BITMAP
000620
000EA0
018FF7
2DFD71
BF6000
C90000
7FDBA2
0AFBA2
0CB000
011000
ENDCHAR
STARTCHAR sterling
ENCODING 163
SWIDTH 586 0
DWIDTH 7 0
BBX 7 8 0 0
BITMAP
0008B960
009FDDE0
02FC2010
AFFFF800
5DF54100
6DE7AB00
DFFFEC10
02210000
ENDCHAR
STARTCHAR currency
ENCODING 164
SWIDTH 509 0
DWIDTH 6 0
BBX 6 7 0 0
BITMAP
050513
1FEFED
1EFFE3
7F6AF1
9FFFE1
CCACD0
720250
ENDCHAR
STARTCHAR yen
ENCODING 165
SWIDTH 563 0
DWIDTH 7 0
BBX 7 8 0 0
BITMAP
04300530
08F17FB0
06F7FD20
03FFF300
AFFFFE30
6BFE6510
08F60000
08D00000
ENDCHAR
STARTCHAR brokenbar
ENCODING 166
SWIDTH 301 0
DWIDTH 4 0
BBX 5 10 -1 -1
BITMAP
000550
000BB0
002F80
006F20
001500
017000
07F300
0DC000
2F6000
020000
ENDCHAR
STARTCHAR section
ENCODING 167
SWIDTH 630 0
DWIDTH 8 0
BBX 8 12 0 -2
BITMAP
00025650
07DFFFF4
0EFC8681
0BFE8200
0AFFFE50
6FC76EE1
4FDADFC0
06EFFE20
0017FF70
7CBEFF70
8FFEA610
02100000
ENDCHAR
STARTCHAR dieresis
ENCODING 168
SWIDTH 754 0
DWIDTH 9 0
BBX 6 3 2 6
BITMAP
1A40A6
4F81EA
020010
ENDCHAR
STARTCHAR copyright
ENCODING 169
SWIDTH 614 0
DWIDTH 7 0
BBX 8 8 0 1
BITMAP
0026A400
04EA5970
1E76D8E1
7C9C51C4
A7C100D4
A98EA7D0
2D439D30
019B8100
ENDCHAR
STARTCHAR ordfeminine
ENCODING 170
SWIDTH 454 0
DWIDTH 5 0
BBX 6 6 0 2
BITMAP
004810
07FF40
1FEF90
8FFFF3
EC8FD0
530620
ENDCHAR
STARTCHAR guillemotleft
ENCODING 171
SWIDTH 566 0
DWIDTH 7 0
BBX 8 6 -1 -1
BITMAP
001B71C6
04DE6DD2
1FC3FB10
0AE5BE40
008D19C0
00020020
ENDCHAR
STARTCHAR logicalnot
ENCODING 172
SWIDTH 698 0
DWIDTH 8 0
BBX 8 5 0 0
BITMAP
00001000
BDFFFFD3
8C988AF6
00000BE1
00000C90
ENDCHAR
STARTCHAR sfthyphen
ENCODING 173
SWIDTH 608 0
DWIDTH 7 0
BBX 7 3 0 2
BITMAP
00011000
8EFFFD30
6B988610
ENDCHAR
STARTCHAR registered
ENCODING 174
SWIDTH 624 0
DWIDTH 7 0
BBX 8 8 0 1
BITMAP
0016A500
03EB7890
0D95F7E2
5E4E9BA6
998F92B6
8ABADAE1
1D629E40
018B9200
ENDCHAR
STARTCHAR macron
ENCODING 175
SWIDTH 754 0
DWIDTH 9 0
BBX 5 2 3 7
BITMAP
8BDC20
BBBA20
ENDCHAR
STARTCHAR degree
ENCODING 176
SWIDTH 284 0
DWIDTH 3 0
BBX 4 4 1 6
BITMAP
0390
4EF1
DBE7
BEB2
ENDCHAR
STARTCHAR plusminus
ENCODING 177
SWIDTH 559 0
DWIDTH 7 0
BBX 8 10 -1 -1
BITMAP
00001100
0000CA00
0002FB00
04CEFFD5
03DEFB84
000BF200
00099000
1799A930
3FFFED90
03100000
ENDCHAR
STARTCHAR twosuperior
ENCODING 178
SWIDTH 386 0
DWIDTH 5 0
BBX 6 5 0 4
BITMAP
068500
1EFF70
05ED20
1FFCD1
0AB960
ENDCHAR
STARTCHAR threesuperior
ENCODING 179
SWIDTH 366 0
DWIDTH 4 0
BBX 5 5 0 4
BITMAP
047810
2FFF70
05FF30
04CFA0
05CA30
ENDCHAR
STARTCHAR acute
ENCODING 180
SWIDTH 754 0
DWIDTH 9 0
BBX 4 4 3 5
BITMAP
0079
09FD
5FB1
3700
ENDCHAR
STARTCHAR mu
ENCODING 181
SWIDTH 569 0
DWIDTH 7 0
BBX 8 9 -1 -2
BITMAP
00000031
008000A7
02F400DA
05F405F6
09F46ED0
0BFFFE20
0FEFA200
1F500000
03000000
ENDCHAR
STARTCHAR paragraph
ENCODING 182
SWIDTH 729 0
DWIDTH 9 0
BBX 10 10 0 -1
BITMAP
00158BDFB1
07EFFFFFE5
4FFBDE6F40
2FC1EB9F00
08FEFBDC00
004CFFFD10
000AF8F700
000CC7F400
001F84F800
0002103100
ENDCHAR
STARTCHAR periodcentered
ENCODING 183
SWIDTH 226 0
DWIDTH 3 0
BBX 3 3 0 3
BITMAP
1500
6F70
2710
ENDCHAR
STARTCHAR cedilla
ENCODING 184
SWIDTH 754 0
DWIDTH 9 0
BBX 5 5 3 -4
BITMAP
047000
0EA100
08DC10
68BF30
499400
ENDCHAR
STARTCHAR onesuperior
ENCODING 185
SWIDTH 206 0
DWIDTH 2 0
BBX 3 5 0 4
BITMAP
0610
0C90
0CA0
2F60
2C10
ENDCHAR
STARTCHAR ordmasculine
ENCODING 186
SWIDTH 445 0
DWIDTH 5 0
BBX 6 6 0 2
BITMAP
004B20
07FF70
5FDEC0
CF6CF2
BFFFD1
288500
ENDCHAR
STARTCHAR guillemotright
ENCODING 187
SWIDTH 595 0
DWIDTH 7 0
BBX 8 7 -1 -1
BITMAP
01001000
09919A10
03EC3ED1
008F57F6
0AF8AF81
3E32E400
02002000
ENDCHAR
STARTCHAR onequarter
ENCODING 188
SWIDTH 705 0
DWIDTH 8 0
BBX 8 10 0 -1
BITMAP
07100460
0E802E80
0D80DE20
3F5AF400
3B7F8082
04F9C6E7
2EC0BFFE
8F202CC1
8E000AB0
01000120
ENDCHAR
STARTCHAR onehalf
ENCODING 189
SWIDTH 750 0
DWIDTH 9 0
BBX 9 10 0 -1
BITMAP
0710046000
0E802E8000
0D80DE2000
3F5AF40000
3B7F843000
04F99FF800
2EC01CF700
8F208FDA20
8E008FDA20
0100000000
ENDCHAR
STARTCHAR threequarters
ENCODING 190
SWIDTH 818 0
DWIDTH 10 0
BBX 10 10 0 -1
BITMAP
08AA300450
1EFF704F80
05FE13ED20
0CEF6EC100
1886DC2370
002DC8B9C0
02EC18FFF2
0AE101CD20
0DA000AB00
0100001200
ENDCHAR
STARTCHAR questiondown
ENCODING 191
SWIDTH 556 0
DWIDTH 7 0
BBX 7 10 -1 -1
BITMAP
00000680
00000DF0
00000240
00006C10
003BFB00
09FFA100
7FE50000
AFFDBD70
6EFFFF50
00255300
ENDCHAR
STARTCHAR Agrave
ENCODING 192
SWIDTH 702 0
DWIDTH 8 0
BBX 10 13 -1 0
BITMAP
00002C2000
00006FE200
000005FD00
0000003800
0000065000
00016FF400
000CFFF600
005FFCF900
00BFA3FD40
03FFCCFFF4
0AFBFFEF80
2FE122BF70
1D9000DD10
ENDCHAR
STARTCHAR Aacute
ENCODING 193
SWIDTH 702 0
DWIDTH 8 0
BBX 10 13 -1 0
BITMAP
0000006A00
000007FE10
00004FD200
0000281000
0000065000
00016FF400
000CFFF600
005FFCF900
00BFA3FD40
03FFCCFFF4
0AFBFFEF80
2FE122BF70
1D9000DD10
ENDCHAR
STARTCHAR Acircumflex
ENCODING 194
SWIDTH 702 0
DWIDTH 8 0
BBX 10 13 -1 0
BITMAP
0000013000
00002DF700
0001ED8F70
0000A20750
0000065000
00016FF400
000CFFF600
005FFCF900
00BFA3FD40
03FFCCFFF4
0AFBFFEF80
2FE122BF70
1D9000DD10
ENDCHAR
STARTCHAR Atilde
ENCODING 195
SWIDTH 702 0
DWIDTH 8 0
BBX 10 12 -1 0
BITMAP
00003DE6B9
0000DCDFE3
0000311420
0000065000
00016FF400
000CFFF600
005FFCF900
00BFA3FD40
03FFCCFFF4
0AFBFFEF80
2FE122BF70
1D9000DD10
ENDCHAR
STARTCHAR Adieresis
ENCODING 196
SWIDTH 702 0
DWIDTH 8 0
BBX 10 12 -1 0
BITMAP
0000A50A70
0002FA0DC0
0000200100
0000065000
00016FF400
000CFFF600
005FFCF900
00BFA3FD40
03FFCCFFF4
0AFBFFEF80
2FE122BF70
1D9000DD10
ENDCHAR
STARTCHAR Aring
ENCODING 197
SWIDTH 702 0
DWIDTH 8 0
BBX 10 12 -1 0
BITMAP
0000002500
000004EC00
00000EBF40
00001EFD20
00016FF400
000CFFF600
005FFCF900
00BFA3FD40
03FFCCFFF4
0AFBFFEF80
2FE122BF70
1D9000DD10
ENDCHAR
STARTCHAR AE
ENCODING 198
SWIDTH 1153 0
DWIDTH 14 0
BBX 16 10 -1 -1
BITMAP
0000028200146960
00004DFA6CFFFFE1
0008FFFABFFEA620
003FFCFB7FC66000
00CF94FDBFFFF900
06FFBDFFFFAA8100
1EFBFEFFF9013500
9F8125FFFFFFFF40
8D2007F8DFFEC800
0000001001100000
ENDCHAR
STARTCHAR Ccedilla
ENCODING 199
SWIDTH 611 0
DWIDTH 7 0
BBX 7 13 0 -4
BITMAP
00002830
0019FFE0
04EFFF90
4FFF7100
DFB10000
ED100000
CE531100
5FFFFF70
04DFFE60
03F60000
02BF7000
067CE000
09BA4000
ENDCHAR
STARTCHAR Egrave
ENCODING 200
SWIDTH 626 0
DWIDTH 8 0
BBX 8 14 0 -1
BITMAP
000A6000
001EF700
0002CF40
00001820
00025793
09DFFFFA
1FFFD850
0CF96400
1EFFFF50
7FDBA600
DF402530
CFFFFFE0
5EFFEB50
00100000
ENDCHAR
STARTCHAR Eacute
ENCODING 201
SWIDTH 626 0
DWIDTH 8 0
BBX 8 14 0 -1
BITMAP
00000790
00009FD0
0005FB10
00037000
00025793
09DFFFFA
1FFFD850
0CF96400
1EFFFF50
7FDBA600
DF402530
CFFFFFE0
5EFFEB50
00100000
ENDCHAR
STARTCHAR Ecircumflex
ENCODING 202
SWIDTH 626 0
DWIDTH 8 0
BBX 8 14 0 -1
BITMAP
00002100
0006FE30
005FACE3
003901A1
00025793
09DFFFFA
1FFFD850
0CF96400
1EFFFF50
7FDBA600
DF402530
CFFFFFE0
5EFFEB50
00100000
ENDCHAR
STARTCHAR Edieresis
ENCODING 203
SWIDTH 626 0
DWIDTH 8 0
BBX 8 13 0 -1
BITMAP
003A23B3
007F54F6
00020010
00025793
09DFFFFA
1FFFD850
0CF96400
1EFFFF50
7FDBA600
DF402530
CFFFFFE0
5EFFEB50
00100000
ENDCHAR
STARTCHAR Igrave
ENCODING 204
SWIDTH 515 0
DWIDTH 6 0
BBX 9 14 -1 -1
BITMAP
0002C30000
0005FE3000
00005ED000
0000038000
0047AAB920
009FFFFF90
0026CF3100
0000ED0000
0004F90000
000AF50000
002FE10000
4BDFFE2000
3FECB91000
0100000000
ENDCHAR
STARTCHAR Iacute
ENCODING 205
SWIDTH 515 0
DWIDTH 6 0
BBX 9 14 -1 -1
BITMAP
0000002B30
000002DF70
00000CF600
0000074000
0047AAB920
009FFFFF90
0026CF3100
0000ED0000
0004F90000
000AF50000
002FE10000
4BDFFE2000
3FECB91000
0100000000
ENDCHAR
STARTCHAR Icircumflex
ENCODING 206
SWIDTH 515 0
DWIDTH 6 0
BBX 9 14 -1 -1
BITMAP
0000012000
00004EE500
0004FBAF40
0002A10920
0047AAB920
009FFFFF90
0026CF3100
0000ED0000
0004F90000
000AF50000
002FE10000
4BDFFE2000
3FECB91000
0100000000
ENDCHAR
STARTCHAR Idieresis
ENCODING 207
SWIDTH 515 0
DWIDTH 6 0
BBX 9 13 -1 -1
BITMAP
0001A40A60
0004F81EA0
0000200100
0047AAB920
009FFFFF90
0026CF3100
0000ED0000
0004F90000
000AF50000
002FE10000
4BDFFE2000
3FECB91000
0100000000
ENDCHAR
STARTCHAR Eth
ENCODING 208
SWIDTH 656 0
DWIDTH 8 0
BBX 9 9 -1 0
BITMAP
0037100000
005FFA2000
007FAFE400
029F61AE20
2FFFF50E80
0BDF63AF90
00CFAFFC10
00FFFE8000
00BD710000
ENDCHAR
STARTCHAR Ntilde
ENCODING 209
SWIDTH 684 0
DWIDTH 8 0
BBX 10 12 -1 0
BITMAP
00001CE88C
00009EBFF6
0000210430
0003600450
000AF70AF5
002FFA0EF4
009FF62FE0
02FFF56FB0
09FFF7DF90
1FFCEFFF50
0EF37FFB00
07C0079100
ENDCHAR
STARTCHAR Ograve
ENCODING 210
SWIDTH 744 0
DWIDTH 9 0
BBX 9 14 0 -1
BITMAP
00003C2000
00006FD200
000006FC00
0000003800
00003C5000
0005FFF100
007FFFF100
07FF98F800
3FF600CE10
9F80006F50
DF2038EF70
BFFFFFFC10
2CFFEB5000
0001000000
ENDCHAR
STARTCHAR Oacute
ENCODING 211
SWIDTH 744 0
DWIDTH 9 0
BBX 9 14 0 -1
BITMAP
000006A000
00007FE100
0004FD2000
0002810000
00003C5000
0005FFF100
007FFFF100
07FF98F800
3FF600CE10
9F80006F50
DF2038EF70
BFFFFFFC10
2CFFEB5000
0001000000
ENDCHAR
STARTCHAR Ocircumflex
ENCODING 212
SWIDTH 744 0
DWIDTH 9 0
BBX 9 14 0 -1
BITMAP
0000021000
00006FD300
0006F9CE20
0004801A10
00003C5000
0005FFF100
007FFFF100
07FF98F800
3FF600CE10
9F80006F50
DF2038EF70
BFFFFFFC10
2CFFEB5000
0001000000
ENDCHAR
STARTCHAR Otilde
ENCODING 213
SWIDTH 744 0
DWIDTH 9 0
BBX 9 13 0 -1
BITMAP
0001CE88C0
0009EBFF60
0002104300
00003C5000
0005FFF100
007FFFF100
07FF98F800
3FF600CE10
9F80006F50
DF2038EF70
BFFFFFFC10
2CFFEB5000
0001000000
ENDCHAR
STARTCHAR Odieresis
ENCODING 214
SWIDTH 744 0
DWIDTH 9 0
BBX 9 13 0 -1
BITMAP
0005A15A20
000AE36F40
0001100100
00003C5000
0005FFF100
007FFFF100
07FF98F800
3FF600CE10
9F80006F50
DF2038EF70
BFFFFFFC10
2CFFEB5000
0001000000
ENDCHAR
STARTCHAR multiply
ENCODING 215
SWIDTH 490 0
DWIDTH 6 0
BBX 6 7 0 0
BITMAP
010001
3E52BA
0CEED4
07FD10
4FEF20
DB1DA0
C20570
ENDCHAR
STARTCHAR Oslash
ENCODING 216
SWIDTH 744 0
DWIDTH 9 0
BBX 9 11 0 -2
BITMAP
00003C5840
0005FFFF60
007FFFFE20
07FFAFF900
3FF6CFEE10
9F88FA6F50
DF8FE8EF70
BFFFFFFC10
2EFFEB5000
0DF2000000
0460000000
ENDCHAR
STARTCHAR Ugrave
ENCODING 217
SWIDTH 695 0
DWIDTH 8 0
BBX 9 12 0 0
BITMAP
003B200000
006FD20000
0006FC0000
0000370700
0810002F40
1FA0005F90
3FD000AF70
6FA004FF30
6FA05EFA00
5FEDFFB100
0EFFFC1000
05DD700000
ENDCHAR
STARTCHAR Uacute
ENCODING 218
SWIDTH 695 0
DWIDTH 8 0
BBX 9 13 0 0
BITMAP
000002B300
00002DF700
0000CF6000
0000740000
0000000700
0810002F40
1FA0005F90
3FD000AF70
6FA004FF30
6FA05EFA00
5FEDFFB100
0EFFFC1000
05DD700000
ENDCHAR
STARTCHAR Ucircumflex
ENCODING 219
SWIDTH 695 0
DWIDTH 8 0
BBX 9 13 0 0
BITMAP
0000120000
0004EE5000
004FBAF400
002A109200
0000000700
0810002F40
1FA0005F90
3FD000AF70
6FA004FF30
6FA05EFA00
5FEDFFB100
0EFFFC1000
05DD700000
ENDCHAR
STARTCHAR Udieresis
ENCODING 220
SWIDTH 695 0
DWIDTH 8 0
BBX 9 12 0 0
BITMAP
002A31B500
006F62E800
0002001000
0000000700
0810002F40
1FA0005F90
3FD000AF70
6FA004FF30
6FA05EFA00
5FEDFFB100
0EFFFC1000
05DD700000
ENDCHAR
STARTCHAR Yacute
ENCODING 221
SWIDTH 493 0
DWIDTH 6 0
BBX 8 14 0 -1
BITMAP
00000970
0000AFB0
0007FA10
00046000
29100880
4F909FF2
2FD5FF50
0EFEF700
09FFC000
04FF3000
0BF90000
4FE10000
5F800000
04000000
ENDCHAR
STARTCHAR Thorn
ENCODING 222
SWIDTH 680 0
DWIDTH 8 0
BBX 9 10 0 -1
BITMAP
0270000000
0AE3100000
0EFFFEB300
2FF99CFE10
6FC01AFF20
8FC8EFF700
9FFFE82000
8FB4000000
3F50000000
0100000000
ENDCHAR
STARTCHAR germandbls
ENCODING 223
SWIDTH 931 0
DWIDTH 11 0
BBX 13 9 0 -1
BITMAP
00002200013100
049EFF96BFFF20
9FFB8AFFE99930
CFFB13FFE70000
168DA0379E4000
0008F0001C9000
27CF9059EF3000
6FE700BFC30000
03000022000000
ENDCHAR
STARTCHAR agrave
ENCODING 224
SWIDTH 581 0
DWIDTH 7 0
BBX 8 12 -1 -1
BITMAP
0001C400
0003FF40
00003EE1
00001280
0000BE20
002EFF40
00AFCF70
02FD2FD5
09FFFFF9
1EC57BF3
2F600DC1
01000100
ENDCHAR
STARTCHAR aacute
ENCODING 225
SWIDTH 581 0
DWIDTH 7 0
BBX 8 12 -1 -1
BITMAP
000005B0
00006FE2
0003FD20
00029100
0000BE20
002EFF40
00AFCF70
02FD2FD5
09FFFFF9
1EC57BF3
2F600DC1
01000100
ENDCHAR
STARTCHAR acircumflex
ENCODING 226
SWIDTH 581 0
DWIDTH 7 0
BBX 8 12 -1 -1
BITMAP
00000300
0002DF80
001DE8F8
00093075
0000BE20
002EFF40
00AFCF70
02FD2FD5
09FFFFF9
1EC57BF3
2F600DC1
01000100
ENDCHAR
STARTCHAR atilde
ENCODING 227
SWIDTH 581 0
DWIDTH 7 0
BBX 9 11 -1 -1
BITMAP
0005ED5C60
001EAEFD10
0003124100
0000BE2000
002EFF4000
00AFCF7000
02FD2FD500
09FFFFF900
1EC57BF300
2F600DC100
0100010000
ENDCHAR
STARTCHAR adieresis
ENCODING 228
SWIDTH 581 0
DWIDTH 7 0
BBX 9 11 -1 -1
BITMAP
0007807910
000DD19E20
0001100100
0000BE2000
002EFF4000
00AFCF7000
02FD2FD500
09FFFFF900
1EC57BF300
2F600DC100
0100010000
ENDCHAR
STARTCHAR aring
ENCODING 229
SWIDTH 581 0
DWIDTH 7 0
BBX 8 11 -1 -1
BITMAP
00000690
00007FE1
0001FBF5
0001EF91
002EFF40
00AFCF70
02FD2FD5
09FFFFF9
1EC57BF3
2F600DC1
01000100
ENDCHAR
STARTCHAR ae
ENCODING 230
SWIDTH 948 0
DWIDTH 11 0
BBX 13 9 -1 -1
BITMAP
00000100000100
00007F549CFF80
001DFF8FFFB810
00AFCF7DE76000
04FB4FCFFFF500
0DEFFFFF753000
7F587EFF9ACB00
AC007FAFFFE800
10000101200000
ENDCHAR
STARTCHAR ccedilla
ENCODING 231
SWIDTH 513 0
DWIDTH 6 0
BBX 6 12 0 -4
BITMAP
000010
0019F9
06EFF9
6FFA20
EE4000
E80000
9FCA93
19FFF6
05F300
02AE40
09BF70
046400
ENDCHAR
STARTCHAR egrave
ENCODING 232
SWIDTH 521 0
DWIDTH 6 0
BBX 7 12 0 -1
BITMAP
03C20000
06FD2000
006FC000
00038100
059CFF60
3FFFB710
0ED65000
3FFFF400
AF652000
DE9ACA00
8FFFD600
02200000
ENDCHAR
STARTCHAR eacute
ENCODING 233
SWIDTH 521 0
DWIDTH 6 0
BBX 7 12 0 -1
BITMAP
00007900
0008FE00
005FC100
00371100
059CFF60
3FFFB710
0ED65000
3FFFF400
AF652000
DE9ACA00
8FFFD600
02200000
ENDCHAR
STARTCHAR ecircumflex
ENCODING 234
SWIDTH 521 0
DWIDTH 6 0
BBX 7 12 0 -1
BITMAP
00003000
001BFA00
00CE7FA0
00830770
059CFF60
3FFFB710
0ED65000
3FFFF400
AF652000
DE9ACA00
8FFFD600
02200000
ENDCHAR
STARTCHAR edieresis
ENCODING 235
SWIDTH 521 0
DWIDTH 6 0
BBX 8 11 0 -1
BITMAP
00780791
00DD19E2
00110110
059CFF60
3FFFB710
0ED65000
3FFFF400
AF652000
DE9ACA00
8FFFD600
02200000
ENDCHAR
STARTCHAR igrave
ENCODING 236
SWIDTH 320 0
DWIDTH 4 0
BBX 5 12 0 -1
BITMAP
097000
0DF800
01CF50
002730
05D000
0AF200
0DE000
2FA000
4F7000
4F7000
1E6000
010000
ENDCHAR
STARTCHAR iacute
ENCODING 237
SWIDTH 320 0
DWIDTH 4 0
BBX 7 13 0 -1
BITMAP
00004C10
0004FF30
002EE300
00182000
00100000
05D00000
0AF20000
0DE00000
2FA00000
4F700000
4F700000
1E600000
01000000
ENDCHAR
STARTCHAR icircumflex
ENCODING 238
SWIDTH 320 0
DWIDTH 4 0
BBX 6 13 0 -1
BITMAP
002200
05EE40
4FABF4
2911A2
001000
05D000
0AF200
0DE000
2FA000
4F7000
4F7000
1E6000
010000
ENDCHAR
STARTCHAR idieresis
ENCODING 239
SWIDTH 320 0
DWIDTH 4 0
BBX 6 11 0 -1
BITMAP
4A13B3
8F45F6
121010
05D000
0AF200
0DE000
2FA000
4F7000
4F7000
1E6000
010000
ENDCHAR
STARTCHAR eth
ENCODING 240
SWIDTH 541 0
DWIDTH 7 0
BBX 8 9 -1 -1
BITMAP
00200000
00CC6000
00DCFC20
15DB2AC0
4FFF62F3
05F87ED1
04FFFC20
02FB5000
00100000
ENDCHAR
STARTCHAR ntilde
ENCODING 241
SWIDTH 564 0
DWIDTH 7 0
BBX 10 10 -1 0
BITMAP
00007EC5D4
0003FAFFB0
0002304400
000D709A00
006FD0EE00
00DF92F900
06FF87F600
0DFFCEF300
1FE5FFC000
0A806B2000
ENDCHAR
STARTCHAR ograve
ENCODING 242
SWIDTH 628 0
DWIDTH 8 0
BBX 8 12 0 -1
BITMAP
00079000
000BFA00
0000AF70
00003750
0008FB00
01AFFD00
0AFB7F50
6FA00AC0
BE101AF1
CE9AEFD0
4EFFD810
01210000
ENDCHAR
STARTCHAR oacute
ENCODING 243
SWIDTH 628 0
DWIDTH 8 0
BBX 8 12 0 -1
BITMAP
00003C20
0003EF40
001EE400
00085100
0008FB00
01AFFD00
0AFB7F50
6FA00AC0
BE101AF1
CE9AEFD0
4EFFD810
01210000
ENDCHAR
STARTCHAR ocircumflex
ENCODING 244
SWIDTH 628 0
DWIDTH 8 0
BBX 8 13 0 -1
BITMAP
00001200
0004EE50
004FBAF4
002A1092
00003100
0008FB00
01AFFD00
0AFB7F50
6FA00AC0
BE101AF1
CE9AEFD0
4EFFD810
01210000
ENDCHAR
STARTCHAR otilde
ENCODING 245
SWIDTH 628 0
DWIDTH 8 0
BBX 9 11 0 -1
BITMAP
0007EC5D40
003FAFFB00
0013334000
0008FB0000
01AFFD0000
0AFB7F5000
6FA00AC000
BE101AF100
CE9AEFD000
4EFFD81000
0121000000
ENDCHAR
STARTCHAR odieresis
ENCODING 246
SWIDTH 628 0
DWIDTH 8 0
BBX 8 11 0 -1
BITMAP
001A40A6
004F81EA
00023110
0008FB00
01AFFD00
0AFB7F50
6FA00AC0
BE101AF1
CE9AEFD0
4EFFD810
01210000
ENDCHAR
STARTCHAR divide
ENCODING 247
SWIDTH 559 0
DWIDTH 7 0
BBX 7 8 0 -1
BITMAP
002D5000
004F8000
02354100
DFFFFE20
68655200
03E70000
03F60000
00100000
ENDCHAR
STARTCHAR oslash
ENCODING 248
SWIDTH 632 0
DWIDTH 8 0
BBX 8 10 0 -2
BITMAP
00003120
0008FCF1
00AFFFD0
0AFBEF60
5FA9FCC0
BE7F89F2
CEFFEFD1
5FFFE910
0FA20000
04200000
ENDCHAR
STARTCHAR ugrave
ENCODING 249
SWIDTH 584 0
DWIDTH 7 0
BBX 8 11 0 0
BITMAP
006A1000
00AFB000
0009F800
00006510
030001D0
1F3005F3
4F7009F2
6F504FC0
6F88FE40
2FFFF400
09EB4000
ENDCHAR
STARTCHAR uacute
ENCODING 250
SWIDTH 584 0
DWIDTH 7 0
BBX 8 11 0 0
BITMAP
00000970
0000AFB0
0007FA10
00046010
030001D0
1F3005F3
4F7009F2
6F504FC0
6F88FE40
2FFFF400
09EB4000
ENDCHAR
STARTCHAR ucircumflex
ENCODING 251
SWIDTH 584 0
DWIDTH 7 0
BBX 8 12 0 0
BITMAP
00003000
000AFB10
00BF7EC0
00750480
00000010
030001D0
1F3005F3
4F7009F2
6F504FC0
6F88FE40
2FFFF400
09EB4000
ENDCHAR
STARTCHAR udieresis
ENCODING 252
SWIDTH 584 0
DWIDTH 7 0
BBX 8 10 0 0
BITMAP
00780791
00DD19E2
00110020
030001D0
1F3005F3
4F7009F2
6F504FC0
6F88FE40
2FFFF400
09EB4000
ENDCHAR
STARTCHAR yacute
ENCODING 253
SWIDTH 400 0
DWIDTH 5 0
BBX 7 13 0 -1
BITMAP
00002C30
0002EF60
000DF600
00083000
01001200
5E21DE10
3F7BF800
1FEFA000
0AFE1000
09F60000
2FC00000
6F400000
04000000
ENDCHAR
STARTCHAR thorn
ENCODING 254
SWIDTH 579 0
DWIDTH 7 0
BBX 7 8 0 0
BITMAP
01200000
0B900000
1FFFEB30
4FB68FD0
8F64CFC0
9FEFE910
9FB51000
4E100000
ENDCHAR
STARTCHAR ydieresis
ENCODING 255
SWIDTH 400 0
DWIDTH 5 0
BBX 7 12 0 -1
BITMAP
02A31A50
05F72E90
00200100
01001200
5E21DE10
3F7BF800
1FEFA000
0AFE1000
09F60000
2FC00000
6F400000
04000000
ENDCHAR
STARTCHAR dotlessi
ENCODING 305
SWIDTH 320 0
DWIDTH 4 0
BBX 4 9 0 -1
BITMAP
0010
05D0
0AF2
0DE0
2FA0
4F70
4F70
1E60
0100
ENDCHAR
STARTCHAR Lslash
ENCODING 321
SWIDTH 632 0
DWIDTH 8 0
BBX 10 10 -2 -1
BITMAP
0000950000
0003FF1000
0008FB0000
002DFEA000
1AFFFA4000
0BEF900000
00CF646610
00CFFFFFE2
005FFCA9A2
0001100000
ENDCHAR
STARTCHAR lslash
ENCODING 322
SWIDTH 533 0
DWIDTH 6 0
BBX 9 9 -2 -1
BITMAP
0001100000
0006F50000
000BF30000
003FFB2000
1BFFC60000
09EF100000
00DFBEE900
008FFCBB10
0002100000
ENDCHAR
STARTCHAR OE
ENCODING 338
SWIDTH 1212 0
DWIDTH 15 0
BBX 15 10 0 -1
BITMAP
00003C5000257930
0005FFF18DFFFFB0
007FFFF2FFFD8510
07FF98F8BF964000
3FF600CEEFFFF500
9F80006FFDBA6000
DF2038EFF5014300
BFFFFFFFFFFFFE10
2CFFEB55EFFEB500
0001000001000000
ENDCHAR
STARTCHAR oe
ENCODING 339
SWIDTH 1010 0
DWIDTH 12 0
BBX 13 9 0 -1
BITMAP
00003100000100
0008FB06ADFF40
01AFFD5FFEA700
0BFB7F6FC75000
6FA00AEFFFE200
BD101AFE551000
CE9AEFFD9AD800
4EFFD8AFFFD500
01210002200000
ENDCHAR
STARTCHAR Scaron
ENCODING 352
SWIDTH 576 0
DWIDTH 7 0
BBX 9 14 0 -1
BITMAP
0002002000
004E43E500
001CEEC200
00019A1000
00037AB500
17EFFFFE10
AFFD766610
CFFF900000
28ADF60000
0000AE0000
0018FC0000
3CFFE30000
3FFA200000
0210000000
ENDCHAR
STARTCHAR scaron
ENCODING 353
SWIDTH 463 0
DWIDTH 6 0
BBX 7 13 0 -1
BITMAP
00100200
07D26F20
03DDFA10
002B8000
00002200
049EFF80
9FFB8970
CFFB1000
168DA000
0008F000
27CF9000
6FE70000
03000000
ENDCHAR
STARTCHAR Ydieresis
ENCODING 376
SWIDTH 493 0
DWIDTH 6 0
BBX 8 13 0 -1
BITMAP
00780791
00DD19E2
00110010
29100880
4F909FF2
2FD5FF50
0EFEF700
09FFC000
04FF3000
0BF90000
4FE10000
5F800000
04000000
ENDCHAR
STARTCHAR Zcaron
ENCODING 381
SWIDTH 664 0
DWIDTH 8 0
BBX 10 15 -1 -1
BITMAP
0000020010
00003E53E6
00001BFED2
0000009A10
0000000000
0018988750
003FFFFFF3
000678FFD1
00004EFB10
001AFFB000
04DFF70000
0EFD325800
1FFCCFFF50
0BFFFD9300
0166300000
ENDCHAR
STARTCHAR zcaron
ENCODING 382
SWIDTH 547 0
DWIDTH 7 0
BBX 9 13 -1 -1
BITMAP
0000200200
0004E43E50
0001CEEC20
000019A100
0001110000
008FFFFA00
002A9FFB00
0002CF9100
006EF80000
0AFD401000
1FF79DE200
0DFFFC5000
0165100000
ENDCHAR
STARTCHAR circumflex
ENCODING 710
SWIDTH 754 0
DWIDTH 9 0
BBX 6 4 2 6
BITMAP
001300
02DF70
1ED8F7
0A2075
ENDCHAR
STARTCHAR caron
ENCODING 711
SWIDTH 754 0
DWIDTH 9 0
BBX 6 4 2 6
BITMAP
020011
1E71D8
09FDE3
007B20
ENDCHAR
STARTCHAR breve
ENCODING 728
SWIDTH 754 0
DWIDTH 9 0
BBX 6 4 2 6
BITMAP
020011
1E73C8
1AFFE4
003510
ENDCHAR
STARTCHAR dotaccent
ENCODING 729
SWIDTH 754 0
DWIDTH 9 0
BBX 3 3 4 6
BITMAP
5900
BE20
1100
ENDCHAR
STARTCHAR ring
ENCODING 730
SWIDTH 754 0
DWIDTH 9 0
BBX 4 4 3 6
BITMAP
0093
0BF8
6FBE
4ED7
ENDCHAR
STARTCHAR ogonek
ENCODING 731
SWIDTH 754 0
DWIDTH 9 0
BBX 5 5 3 -4
BITMAP
040000
5B0000
5E5320
0AFFE0
001310
ENDCHAR
STARTCHAR tilde
ENCODING 732
SWIDTH 754 0
DWIDTH 9 0
BBX 7 3 2 6
BITMAP
0AEA6D10
7FAFF800
22043000
ENDCHAR
STARTCHAR hungarumlaut
ENCODING 733
SWIDTH 754 0
DWIDTH 9 0
BBX 7 4 2 5
BITMAP
03C22C30
3EF7DF60
EE5CF600
83073000
ENDCHAR
STARTCHAR endash
ENCODING 8211
SWIDTH 588 0
DWIDTH 7 0
BBX 7 3 0 2
BITMAP
00011000
AEFFFD20
7B988610
ENDCHAR
STARTCHAR emdash
ENCODING 8212
SWIDTH 878 0
DWIDTH 11 0
BBX 10 3 0 2
BITMAP
0012222100
AFFFFFFFE6
3A98777653
ENDCHAR
STARTCHAR quoteleft
ENCODING 8216
SWIDTH 203 0
DWIDTH 2 0
BBX 3 5 1 5
BITMAP
0100
4F90
AF50
DD00
5500
ENDCHAR
STARTCHAR quoteright
ENCODING 8217
SWIDTH 199 0
DWIDTH 2 0
BBX 3 4 1 5
BITMAP
2E60
7F80
DF20
7500
ENDCHAR
STARTCHAR quotesinglbase
ENCODING 8218
SWIDTH 204 0
DWIDTH 2 0
BBX 4 4 -2 -2
BITMAP
0281
07F6
0DF2
2E80
ENDCHAR
STARTCHAR quotedblleft
ENCODING 8220
SWIDTH 410 0
DWIDTH 5 0
BBX 6 5 1 5
BITMAP
010000
5E6BD2
BF6FC0
DC6F50
872810
ENDCHAR
STARTCHAR quotedblright
ENCODING 8221
SWIDTH 425 0
DWIDTH 5 0
BBX 6 4 1 5
BITMAP
2E65E3
7F8CF3
DF7FA0
753810
ENDCHAR
STARTCHAR quotedblbase
ENCODING 8222
SWIDTH 430 0
DWIDTH 5 0
BBX 7 4 -2 -2
BITMAP
02814700
07F6BF20
0DF6FB00
2E89D200
ENDCHAR
STARTCHAR bullet
ENCODING 8226
SWIDTH 299 0
DWIDTH 4 0
BBX 3 3 0 2
BITMAP
3D50
8FC0
4A50
ENDCHAR
STARTCHAR ellipsis
ENCODING 8230
SWIDTH 768 0
DWIDTH 9 0
BBX 10 3 -1 -1
BITMAP
1B709907A2
3F90ED0AF1
0300210120
ENDCHAR
STARTCHAR perthousand
ENCODING 8240
SWIDTH 889 0
DWIDTH 11 0
BBX 11 9 0 0
BITMAP
005200040000
07F800AB0000
3FBE0AF40000
5FFB9E400000
0229E3000000
00AE5B503D10
0AE4DEB3EE60
5F46FBFADDB0
6C02BA55C930
ENDCHAR
STARTCHAR guilsinglleft
ENCODING 8249
SWIDTH 322 0
DWIDTH 4 0
BBX 5 6 -1 -1
BITMAP
001B70
04DE20
1FC200
0AE500
008D00
000200
ENDCHAR
STARTCHAR guilsinglright
ENCODING 8250
SWIDTH 341 0
DWIDTH 4 0
BBX 5 7 -1 -1
BITMAP
010000
099100
03EC10
008F50
0AF810
3E3000
020000
ENDCHAR
STARTCHAR fraction
ENCODING 8260
SWIDTH 541 0
DWIDTH 7 0
BBX 7 10 0 -1
BITMAP
00000730
00005F50
0002EC10
001CD200
00AF3000
08F60000
5F800000
CD000000
CA000000
11000000
ENDCHAR
STARTCHAR Euro
ENCODING 8364
SWIDTH 565 0
DWIDTH 7 0
BBX 8 8 -1 0
BITMAP
00000020
00004DF3
001BFFD2
00AFD400
1BFFEC40
1CFC9830
00AFEDB0
0017BDA1
ENDCHAR
STARTCHAR Delta
ENCODING 8710
SWIDTH 403 0
DWIDTH 5 0
BBX 8 9 -1 -1
BITMAP
00013310
00DFFFF3
007AF730
0008E100
000DB000
004F6000
26CF9100
4FEDB300
02000000
ENDCHAR
STARTCHAR minus
ENCODING 8722
SWIDTH 548 0
DWIDTH 7 0
BBX 6 3 0 2
BITMAP
000100
CEFFFB
AA9875
ENDCHAR
STARTCHAR approxequal
ENCODING 8776
SWIDTH 323 0
DWIDTH 4 0
BBX 4 10 0 -1
BITMAP
0180
08F3
0CF6
1FF3
4FD0
7FA0
8F80
6F90
1F70
0100
ENDCHAR
STARTCHAR fi
ENCODING 64257
SWIDTH 810 0
DWIDTH 10 0
BBX 11 9 -1 -1
BITMAP
000002410100
0059EFFD7B00
06FFB643CF10
01CE1000ED00
1AEEAC34F800
1EFFDA15F500
0BD10006F500
0A900002F500
001000001000
ENDCHAR
STARTCHAR fl
ENCODING 64258
SWIDTH 1012 0
DWIDTH 12 0
BBX 13 9 -1 -1
BITMAP
00000241100000
0059EFFDAE2000
06FFB643EE0000
01CE1005F90000
1AEEAC3AF30000
1EFFDA2ED00000
0BD1001FECEE60
0A90000BFECB90
00100000200000
ENDCHAR
STARTCHAR .notdef
ENCODING -1
SWIDTH 370 0
DWIDTH 4 0
BBX 1 1 0 0
BITMAP
00
ENDCHAR
ENDFONT
